<svg width="32" height="32" fill="none" xmlns="http://www.w3.org/2000/svg"><path d="M32 28.23A3.77 3.77 0 0128.23 32H3.77A3.77 3.77 0 010 28.23V3.77A3.77 3.77 0 013.77 0h24.46A3.77 3.77 0 0132 3.77v24.46z" fill="#fff"/><mask id="a" maskUnits="userSpaceOnUse" x="0" y="0" width="32" height="32"><path d="M32 28.23A3.77 3.77 0 0128.23 32H3.77A3.77 3.77 0 010 28.23V3.77A3.77 3.77 0 013.77 0h24.46A3.77 3.77 0 0132 3.77v24.46z" fill="#fff"/></mask><g mask="url(#a)" fill="#039"><path d="M24.92 12.72l-2.34 3.55a15.52 15.52 0 011.6 7.35c-.07 2.54-.13 4.5-2.76 8.16l-.16.22h4.61a19.4 19.4 0 00-.93-19.3l-.02.02zM6.28 25.87a3.8 3.8 0 004.15.84c.46-.2.88-.48 1.24-.84L22.44 9.54 6.28 20.43a3.85 3.85 0 000 5.44zM6.3 8.02c3.23-.58 6.55-.1 9.48 1.39l3.52-2.37A18.88 18.88 0 000 6.3v4.43a15.15 15.15 0 016.3-2.71z"/></g></svg>